<?xml version="1.0" standalone="no"?>
<!DOCTYPE svg PUBLIC "-//W3C//DTD SVG 20010904//EN"
 "http://www.w3.org/TR/2001/REC-SVG-20010904/DTD/svg10.dtd">
<svg version="1.0" xmlns="http://www.w3.org/2000/svg"
 width="36px" height="36px"  viewBox="0 0 110.000000 110.000000"
 preserveAspectRatio="xMidYMid meet">
<metadata>
Created by potrace 1.10, written by Peter Selinger 2001-2011
</metadata>
<g transform="translate(0.000000,110.000000) scale(0.100000,-0.100000)"
fill="#000000" stroke="none">
<path d="M322 945 l-32 -34 0 -361 0 -361 32 -34 31 -35 200 0 199 0 29 33 29
32 0 366 0 365 -33 32 -33 32 -195 0 -196 0 -31 -35z m432 -11 c14 -13 16 -47
16 -219 l0 -203 -65 -37 -65 -36 0 -144 0 -145 -89 0 -89 0 5 138 6 139 -29
20 c-16 11 -48 30 -71 42 l-43 21 0 202 c0 173 2 204 17 220 14 16 35 18 204
18 157 0 190 -3 203 -16z m-364 -485 l50 -31 0 -134 0 -134 -39 0 c-67 0 -71
11 -71 181 0 82 2 149 5 149 3 0 27 -14 55 -31z m380 -118 c0 -170 -4 -181
-71 -181 l-39 0 0 134 0 134 53 31 c28 17 53 31 55 31 1 0 2 -67 2 -149z"/>
<path d="M440 835 c0 -13 16 -15 113 -13 66 2 112 7 112 13 0 6 -46 11 -112
13 -97 2 -113 0 -113 -13z"/>
<path d="M442 779 c3 -9 116 -13 218 -9 6 0 10 5 10 10 0 6 -45 10 -116 10
-78 0 -115 -3 -112 -11z"/>
<path d="M540 536 c0 -50 19 -64 22 -16 0 17 1 35 2 42 1 6 -5 13 -11 16 -9 2
-13 -10 -13 -42z"/>
<path d="M490 519 c-11 -27 -11 -33 7 -57 52 -70 154 -8 113 69 -18 32 -31 22
-24 -20 5 -33 3 -41 -14 -50 -27 -14 -28 -14 -47 5 -11 11 -14 26 -9 50 8 43
-9 45 -26 3z"/>
</g>
</svg>
