<?xml version="1.0" standalone="no"?>
<!DOCTYPE svg PUBLIC "-//W3C//DTD SVG 20010904//EN"
 "http://www.w3.org/TR/2001/REC-SVG-20010904/DTD/svg10.dtd">
<svg version="1.0" xmlns="http://www.w3.org/2000/svg"
 width="36px" height="36px"  viewBox="0 0 110.000000 110.000000"
 preserveAspectRatio="xMidYMid meet">
<metadata>
Created by potrace 1.10, written by Peter Selinger 2001-2011
</metadata>
<g transform="translate(0.000000,110.000000) scale(0.100000,-0.100000)"
fill="#000000" stroke="none">
<path d="M307 974 c-4 -4 -7 -23 -7 -43 0 -32 -3 -36 -26 -38 -34 -1 -66 -34
-66 -67 0 -22 -5 -25 -42 -28 -57 -4 -57 -32 0 -36 40 -3 41 -4 39 -40 -1 -34
-4 -37 -31 -38 -50 -2 -54 -4 -54 -19 0 -15 4 -17 54 -19 27 -1 30 -4 31 -38
2 -36 0 -38 -29 -38 -17 0 -37 -4 -45 -9 -22 -14 -2 -31 37 -31 37 0 37 -1 37
-40 l0 -40 -42 0 c-31 0 -43 -4 -43 -15 0 -16 36 -29 66 -23 14 2 18 -4 19
-35 2 -35 0 -37 -29 -37 -17 0 -37 -4 -45 -9 -23 -14 -2 -31 38 -31 35 0 39
-2 38 -27 0 -30 43 -73 73 -73 14 0 20 -9 22 -37 2 -27 8 -39 21 -41 14 -3 17
4 17 37 l0 41 41 0 c39 0 41 -1 36 -27 -6 -33 1 -53 18 -53 17 0 24 20 18 53
-5 26 -3 27 35 27 40 0 41 -1 44 -37 2 -27 8 -39 21 -41 14 -3 17 4 17 37 l0
41 40 0 c40 0 40 0 40 -40 0 -28 4 -40 14 -40 18 0 30 33 21 60 -6 18 -2 20
34 20 39 0 40 -1 43 -37 2 -27 8 -39 21 -41 14 -3 17 4 17 37 0 35 3 41 21 41
27 0 79 52 79 79 0 18 6 21 41 21 33 0 40 3 37 17 -2 13 -14 19 -41 21 -36 3
-37 4 -37 43 0 36 2 40 20 34 27 -9 60 3 60 21 0 10 -12 14 -40 14 -40 0 -40
0 -40 40 l0 40 41 0 c33 0 40 3 37 18 -2 12 -14 18 -41 20 -36 3 -37 4 -37 44
0 38 1 40 27 35 33 -6 53 1 53 19 0 15 -9 17 -52 14 -26 -1 -28 1 -28 39 l0
41 41 0 c33 0 40 3 37 18 -2 12 -14 18 -41 20 -28 2 -37 8 -37 22 0 30 -43 73
-73 73 -25 0 -27 3 -27 38 0 40 -17 61 -31 38 -5 -8 -9 -28 -9 -45 0 -29 -2
-31 -37 -29 -31 1 -38 5 -36 21 4 32 -7 64 -22 64 -11 0 -15 -12 -15 -43 l0
-42 -40 0 c-39 0 -40 0 -40 37 0 39 -17 59 -31 37 -5 -8 -9 -28 -9 -45 0 -29
-2 -31 -37 -29 -35 1 -38 4 -39 31 -2 50 -4 54 -19 54 -15 0 -17 -4 -19 -54
-1 -27 -4 -30 -38 -31 -36 -2 -37 -1 -40 38 -3 38 -16 56 -31 41z m534 -124
c18 -10 19 -24 19 -298 0 -211 -3 -291 -12 -300 -9 -9 -89 -12 -300 -12 -274
0 -288 1 -298 19 -6 12 -10 124 -10 295 0 236 2 277 16 290 13 14 54 16 290
16 171 0 283 -4 295 -10z"/>
<path d="M285 807 c-3 -7 -4 -127 -3 -267 l3 -255 265 0 265 0 0 265 0 265
-263 3 c-206 2 -264 0 -267 -11z m495 -257 l0 -230 -230 0 -230 0 0 230 0 230
230 0 230 0 0 -230z"/>
</g>
</svg>
