<?xml version="1.0" standalone="no"?>
<!DOCTYPE svg PUBLIC "-//W3C//DTD SVG 20010904//EN"
 "http://www.w3.org/TR/2001/REC-SVG-20010904/DTD/svg10.dtd">
<svg version="1.0" xmlns="http://www.w3.org/2000/svg"
 width="36px" height="36px"  viewBox="0 0 110.000000 110.000000"
 preserveAspectRatio="xMidYMid meet">
<metadata>
Created by potrace 1.10, written by Peter Selinger 2001-2011
</metadata>
<g transform="translate(0.000000,110.000000) scale(0.100000,-0.100000)"
fill="#000000" stroke="none">
<path d="M131 821 c-23 -15 -1 -33 38 -29 l36 3 3 -47 c3 -42 1 -47 -19 -50
-21 -3 -23 -8 -23 -63 0 -54 2 -60 22 -63 30 -5 30 -39 0 -38 -20 1 -22 -3
-20 -59 0 -33 1 -64 1 -68 1 -5 10 -5 21 -2 19 6 20 2 20 -65 0 -53 3 -71 13
-68 6 3 13 21 15 41 3 31 7 37 27 37 19 0 24 -6 27 -32 l3 -33 100 0 100 0 3
32 c2 24 8 33 22 33 14 0 20 -9 22 -33 l3 -32 175 0 175 0 3 32 c3 27 8 33 26
33 50 0 56 22 56 206 0 161 -1 170 -21 182 -16 11 -98 13 -370 12 l-349 -1 0
25 c0 46 -10 56 -54 56 -22 0 -47 -4 -55 -9z m814 -266 l0 -170 -352 -3 -353
-2 0 175 0 175 353 -2 352 -3 0 -170z m-735 80 c0 -25 -4 -45 -10 -45 -11 0
-14 73 -3 83 11 12 13 8 13 -38z m0 -165 c0 -22 -4 -40 -10 -40 -5 0 -10 18
-10 40 0 22 5 40 10 40 6 0 10 -18 10 -40z m260 -140 c0 -25 -25 -26 -35 -2
-6 16 -7 16 -19 0 -16 -22 -46 -24 -46 -3 0 8 -4 15 -10 15 -5 0 -10 -7 -10
-15 0 -8 -9 -15 -20 -15 -13 0 -20 7 -20 20 0 18 7 20 80 20 73 0 80 -2 80
-20z m400 0 c0 -11 -7 -20 -15 -20 -8 0 -15 7 -15 15 0 8 -4 15 -10 15 -5 0
-10 -7 -10 -15 0 -8 -6 -15 -14 -15 -8 0 -16 7 -20 15 -3 8 -10 15 -16 15 -5
0 -10 -7 -10 -15 0 -8 -7 -15 -15 -15 -8 0 -15 7 -15 15 0 8 -4 15 -10 15 -5
0 -10 -7 -10 -15 0 -20 -20 -19 -36 3 -12 16 -13 16 -19 0 -9 -22 -35 -24 -35
-3 0 8 -4 15 -10 15 -5 0 -10 -7 -10 -15 0 -8 -7 -15 -15 -15 -8 0 -15 9 -15
20 0 19 7 20 150 20 143 0 150 -1 150 -20z"/>
<path d="M330 674 c-89 -75 -79 -203 20 -255 104 -56 220 18 220 139 0 51 -3
57 -44 98 -42 42 -46 44 -104 44 -51 0 -66 -4 -92 -26z m55 -36 c-3 -53 -15
-61 -35 -25 -14 27 -14 29 9 48 13 10 24 19 26 19 2 0 2 -19 0 -42z m84 33
c11 -7 6 -15 -20 -39 -36 -33 -47 -25 -35 24 7 25 29 31 55 15z m65 -63 c18
-29 18 -31 2 -25 -10 4 -33 7 -52 7 -41 0 -44 14 -6 34 36 20 35 21 56 -16z
m-174 -48 c5 0 10 -4 10 -10 0 -14 -43 -12 -64 3 -14 11 -15 17 -6 42 l11 29
19 -32 c11 -18 24 -32 30 -32z m80 5 c15 -17 5 -35 -20 -35 -22 0 -33 23 -17
39 15 15 22 14 37 -4z m84 -7 c21 -9 24 -16 19 -37 -3 -14 -7 -28 -9 -29 -4
-5 -63 61 -64 71 0 11 25 9 54 -5z m-158 -44 c28 7 30 0 7 -26 -21 -24 -50
-23 -63 1 -17 32 -13 43 11 31 11 -7 32 -9 45 -6z m129 -24 c14 -27 14 -30 -7
-44 -12 -9 -25 -16 -28 -16 -4 0 -5 73 -1 98 2 10 23 -13 36 -38z m-61 -17
c-11 -45 -21 -53 -55 -41 l-30 10 30 19 c17 10 31 23 31 29 0 5 7 10 15 10 12
0 14 -7 9 -27z"/>
<path d="M683 680 c-68 -41 -90 -119 -54 -194 40 -81 150 -110 220 -59 49 37
65 70 65 127 -1 61 -27 107 -74 131 -41 21 -118 19 -157 -5z m51 -17 c-4 -10
-7 -33 -7 -51 2 -39 -15 -38 -37 2 -14 26 -14 28 9 47 29 24 46 25 35 2z m74
11 c24 -7 30 -24 8 -24 -8 0 -23 -11 -34 -25 -11 -14 -23 -25 -26 -25 -10 0
-7 40 4 61 12 21 14 22 48 13z m67 -60 c9 -14 15 -27 13 -28 -7 -5 -98 6 -98
13 0 7 50 40 61 41 4 0 14 -12 24 -26z m-172 -72 c-29 -7 -63 8 -63 27 0 49
11 53 45 14 25 -28 29 -39 18 -41z m82 13 c0 -13 -8 -21 -22 -23 -17 -3 -23 2
-23 16 0 10 3 22 7 26 13 13 38 1 38 -19z m98 -4 c12 -12 0 -61 -13 -61 -6 0
-10 7 -10 15 0 8 -11 22 -25 31 -14 9 -25 21 -25 26 0 12 60 2 73 -11z m-178
-37 c33 8 40 -9 10 -28 -31 -21 -45 -20 -61 2 -22 28 -18 45 7 32 11 -7 31 -9
44 -6z m129 -16 c9 -12 16 -27 16 -34 0 -10 -50 -39 -55 -32 -6 8 8 88 15 88
5 0 16 -10 24 -22z m-54 -14 c0 -29 -20 -54 -44 -54 -37 0 -38 12 -4 41 38 32
48 35 48 13z"/>
</g>
</svg>
