<?xml version="1.0" standalone="no"?>
<!DOCTYPE svg PUBLIC "-//W3C//DTD SVG 20010904//EN"
 "http://www.w3.org/TR/2001/REC-SVG-20010904/DTD/svg10.dtd">
<svg version="1.0" xmlns="http://www.w3.org/2000/svg"
 width="36px" height="36px"  viewBox="0 0 110.000000 110.000000"
 preserveAspectRatio="xMidYMid meet">
<metadata>
Created by potrace 1.10, written by Peter Selinger 2001-2011
</metadata>
<g transform="translate(0.000000,110.000000) scale(0.100000,-0.100000)"
fill="#000000" stroke="none">
<path d="M185 958 c-3 -13 -4 -205 -3 -428 l3 -405 367 -3 368 -2 0 430 0 430
-365 0 -365 0 -5 -22z m119 -41 c25 -33 26 -39 26 -172 0 -137 0 -139 -27
-167 -19 -20 -37 -28 -60 -28 l-33 0 0 200 0 200 34 0 c28 0 40 -7 60 -33z
m224 11 c-3 -22 0 -23 90 -26 l92 -3 0 26 c0 25 0 25 90 25 l90 0 0 -225 0
-225 -35 0 -35 0 0 -76 0 -76 33 4 32 3 3 -102 3 -103 -31 0 -30 0 0 83 0 82
-54 38 c-47 32 -62 37 -110 37 l-56 0 0 -120 0 -120 -200 0 -200 0 0 191 0
191 35 -3 c28 -3 41 3 70 31 l35 34 0 155 c0 145 -1 156 -22 178 l-21 23 112
0 c111 0 112 0 109 -22z m162 7 c0 -12 -14 -15 -70 -15 -56 0 -70 3 -70 15 0
12 14 15 70 15 56 0 70 -3 70 -15z m200 -475 c0 -15 -7 -20 -25 -20 -18 0 -25
5 -25 20 0 15 7 20 25 20 18 0 25 -5 25 -20z m-5 -65 c0 -30 -39 -27 -43 3 -3
20 0 23 20 20 15 -2 23 -10 23 -23z m-119 -65 l44 -31 0 -74 0 -75 -90 0 -90
0 0 105 0 105 46 0 c34 0 56 -7 90 -30z"/>
<path d="M268 765 c-3 -132 -2 -145 13 -145 5 0 9 60 9 135 0 78 -4 135 -9
135 -6 0 -11 -56 -13 -125z"/>
<path d="M380 740 c0 -99 -1 -183 -2 -187 -2 -5 25 -9 60 -11 l62 -3 0 191 0
190 -60 0 -60 0 0 -180z m48 138 c-2 -13 -7 -23 -13 -23 -5 0 -11 10 -13 23
-2 15 2 22 13 22 11 0 15 -7 13 -22z m50 0 c-2 -13 -7 -23 -13 -23 -5 0 -11
10 -13 23 -2 15 2 22 13 22 11 0 15 -7 13 -22z m-48 -143 c0 -87 -3 -105 -15
-105 -12 0 -15 18 -15 105 0 87 3 105 15 105 12 0 15 -18 15 -105z m50 0 c0
-87 -3 -105 -15 -105 -12 0 -15 18 -15 105 0 87 3 105 15 105 12 0 15 -18 15
-105z m-50 -150 c0 -16 -6 -25 -15 -25 -9 0 -15 9 -15 25 0 16 6 25 15 25 9 0
15 -9 15 -25z m50 0 c0 -16 -6 -25 -15 -25 -9 0 -15 9 -15 25 0 16 6 25 15 25
9 0 15 -9 15 -25z"/>
<path d="M740 730 l0 -190 60 0 60 0 0 190 0 190 -60 0 -60 0 0 -190z m48 148
c-2 -13 -7 -23 -13 -23 -5 0 -11 10 -13 23 -2 15 2 22 13 22 11 0 15 -7 13
-22z m50 0 c-2 -13 -7 -23 -13 -23 -5 0 -11 10 -13 23 -2 15 2 22 13 22 11 0
15 -7 13 -22z m-48 -143 c0 -87 -3 -105 -15 -105 -12 0 -15 18 -15 105 0 87 3
105 15 105 12 0 15 -18 15 -105z m50 0 c0 -87 -3 -105 -15 -105 -12 0 -15 18
-15 105 0 87 3 105 15 105 12 0 15 -18 15 -105z m-50 -150 c0 -16 -6 -25 -15
-25 -9 0 -15 9 -15 25 0 16 6 25 15 25 9 0 15 -9 15 -25z m50 0 c0 -16 -6 -25
-15 -25 -9 0 -15 9 -15 25 0 16 6 25 15 25 9 0 15 -9 15 -25z"/>
<path d="M534 841 c-2 -2 -4 -44 -4 -93 l0 -88 90 0 91 0 -3 91 -3 91 -83 1
c-46 1 -86 0 -88 -2z m156 -91 l0 -70 -70 0 -70 0 0 70 0 70 70 0 70 0 0 -70z"/>
<path d="M611 756 c-24 -24 -39 -46 -34 -49 6 -4 29 13 52 37 24 24 39 46 34
49 -6 4 -29 -13 -52 -37z"/>
<path d="M527 624 c-17 -17 11 -24 94 -24 72 0 89 3 89 15 0 12 -16 15 -88 15
-49 0 -92 -3 -95 -6z"/>
<path d="M564 561 c-14 -14 3 -21 57 -21 42 0 59 4 57 12 -4 11 -104 19 -114
9z"/>
<path d="M260 390 c0 -48 4 -70 11 -68 7 2 11 30 11 68 0 38 -4 66 -11 68 -7
2 -11 -20 -11 -68z"/>
<path d="M314 446 c-3 -8 -4 -23 -2 -33 3 -16 16 -18 133 -18 l130 0 0 30 0
30 -128 3 c-105 2 -128 0 -133 -12z m184 -17 c-5 -16 -158 -17 -158 -1 0 8 23
12 81 12 53 0 79 -4 77 -11z m52 -4 c0 -8 -7 -15 -15 -15 -8 0 -15 7 -15 15 0
8 7 15 15 15 8 0 15 -7 15 -15z"/>
<path d="M315 350 c-3 -5 -1 -10 4 -10 6 -1 63 -1 126 -1 63 0 120 0 126 1 5
0 7 5 4 10 -4 6 -58 10 -130 10 -72 0 -126 -4 -130 -10z"/>
<path d="M314 301 c-2 -2 -4 -17 -4 -33 l0 -28 131 0 130 0 -3 31 -3 30 -123
2 c-68 1 -126 0 -128 -2z m186 -31 c0 -6 -33 -10 -80 -10 -47 0 -80 4 -80 10
0 6 33 10 80 10 47 0 80 -4 80 -10z m50 0 c0 -5 -7 -10 -15 -10 -8 0 -15 5
-15 10 0 6 7 10 15 10 8 0 15 -4 15 -10z"/>
<path d="M260 270 c0 -13 5 -20 13 -17 6 2 12 10 12 17 0 7 -6 15 -12 18 -8 2
-13 -5 -13 -18z"/>
<path d="M260 211 c0 -11 4 -22 9 -25 11 -7 23 22 15 35 -9 16 -24 10 -24 -10z"/>
<path d="M313 197 c-2 -4 2 -10 9 -12 23 -9 253 -1 253 9 0 10 -255 14 -262 3z"/>
<path d="M665 260 c3 -5 31 -10 61 -10 30 0 54 5 54 10 0 6 -27 10 -61 10 -37
0 -58 -4 -54 -10z"/>
<path d="M665 200 c-7 -12 -5 -12 55 -12 25 0 47 3 50 8 7 13 -97 17 -105 4z"/>
</g>
</svg>
