<?xml version="1.0" standalone="no"?>
<!DOCTYPE svg PUBLIC "-//W3C//DTD SVG 20010904//EN"
 "http://www.w3.org/TR/2001/REC-SVG-20010904/DTD/svg10.dtd">
<svg version="1.0" xmlns="http://www.w3.org/2000/svg"
 width="36px" height="36px"  viewBox="0 0 110.000000 110.000000"
 preserveAspectRatio="xMidYMid meet">
<metadata>
Created by potrace 1.10, written by Peter Selinger 2001-2011
</metadata>
<g transform="translate(0.000000,110.000000) scale(0.100000,-0.100000)"
fill="#000000" stroke="none">
<path d="M237 893 c-2 -5 -21 -65 -42 -135 -28 -94 -43 -129 -57 -134 -17 -5
-18 -20 -18 -203 0 -140 3 -200 12 -209 9 -9 115 -12 414 -12 221 0 409 3 418
6 14 5 16 33 16 209 0 188 -1 204 -18 209 -14 5 -29 41 -58 139 l-39 132 -312
3 c-171 1 -313 -1 -316 -5z m619 -68 c7 -22 23 -75 37 -117 l24 -78 -367 0
-367 0 28 87 c16 49 29 91 29 95 0 4 4 18 10 33 l10 25 291 -2 292 -3 13 -40z
m94 -410 l0 -185 -400 0 -400 0 0 185 0 185 400 0 400 0 0 -185z"/>
<path d="M359 773 c-6 -16 -11 -39 -12 -53 l-2 -25 158 -3 c135 -2 157 0 157
13 0 13 -22 15 -145 15 -80 0 -145 3 -145 6 0 3 5 14 10 25 10 18 23 19 180
19 l170 0 0 -25 c0 -20 -5 -25 -25 -25 -16 0 -25 -6 -25 -15 0 -11 11 -15 40
-15 44 0 45 3 34 73 l-7 37 -189 0 -188 0 -11 -27z"/>
<path d="M225 530 c-45 -45 -45 -46 -45 -116 0 -69 0 -70 43 -112 42 -42 43
-42 117 -42 74 0 75 0 117 42 43 42 43 43 43 113 0 71 0 71 -45 115 -44 43
-46 44 -115 44 l-71 1 -44 -45z m105 5 c0 -9 -9 -15 -24 -15 -26 0 -76 -50
-76 -76 0 -8 -4 -14 -10 -14 -23 0 -9 55 22 87 34 36 88 46 88 18z m102 -22
c39 -38 51 -83 23 -83 -8 0 -15 8 -15 18 0 23 -50 72 -73 72 -9 0 -17 7 -17
15 0 27 43 16 82 -22z m-102 -24 c0 -15 -42 -59 -57 -59 -20 0 -15 21 9 47 23
24 48 31 48 12z m67 -11 c25 -23 31 -48 11 -48 -16 0 -58 41 -58 57 0 20 21
16 47 -9z m-32 -57 c0 -8 -8 -19 -17 -25 -22 -13 -44 5 -34 29 7 20 51 16 51
-4z m-133 -31 c-4 -18 58 -80 81 -80 23 0 17 -24 -7 -28 -36 -7 -121 100 -98
123 10 9 27 -2 24 -15z m71 -5 c29 -25 35 -45 15 -45 -20 1 -58 36 -58 54 0
22 10 20 43 -9z m112 14 c8 -12 -33 -59 -52 -59 -19 0 -16 16 10 44 25 27 33
30 42 15z m55 -16 c0 -35 -65 -103 -97 -103 -14 0 -23 6 -23 15 0 8 8 15 17
15 22 0 73 49 73 70 0 9 3 20 7 23 14 14 23 6 23 -20z"/>
<path d="M529 566 c-11 -12 -12 -116 -1 -134 7 -9 48 -12 173 -10 l164 3 3 64
c2 35 -1 68 -6 73 -13 13 -320 16 -333 4z m51 -71 c0 -42 -3 -55 -15 -55 -12
0 -15 13 -15 55 0 42 3 55 15 55 12 0 15 -13 15 -55z m50 0 c0 -42 -3 -55 -15
-55 -12 0 -15 13 -15 55 0 42 3 55 15 55 12 0 15 -13 15 -55z m53 0 c0 -71
-24 -68 -27 3 -1 41 2 52 13 50 10 -2 14 -18 14 -53z m57 0 c0 -42 -3 -55 -15
-55 -12 0 -15 13 -15 55 0 42 3 55 15 55 12 0 15 -13 15 -55z m50 0 c0 -42 -3
-55 -15 -55 -12 0 -15 13 -15 55 0 42 3 55 15 55 12 0 15 -13 15 -55z m50 0
c0 -42 -3 -55 -15 -55 -12 0 -15 13 -15 55 0 42 3 55 15 55 12 0 15 -13 15
-55z"/>
<path d="M536 358 c-10 -18 -16 -46 -14 -63 l3 -30 105 0 105 0 3 30 c2 17 -4
45 -14 63 -17 32 -18 32 -94 32 -76 0 -77 0 -94 -32z m168 -14 c3 -9 6 -26 6
-39 0 -21 -3 -22 -80 -22 l-80 0 0 26 c0 41 18 51 86 51 47 0 63 -4 68 -16z"/>
<path d="M580 325 c0 -8 9 -15 20 -15 11 0 20 7 20 15 0 8 -9 15 -20 15 -11 0
-20 -7 -20 -15z"/>
<path d="M640 325 c0 -11 7 -15 23 -13 12 2 22 8 22 13 0 6 -10 11 -22 13 -16
2 -23 -2 -23 -13z"/>
<path d="M764 346 c-3 -8 -4 -25 -2 -38 3 -21 8 -23 53 -23 l50 0 0 35 c0 35
0 35 -48 38 -35 2 -49 -1 -53 -12z m76 -21 c0 -9 -9 -15 -25 -15 -16 0 -25 6
-25 15 0 9 9 15 25 15 16 0 25 -6 25 -15z"/>
</g>
</svg>
