<?xml version="1.0" standalone="no"?>
<!DOCTYPE svg PUBLIC "-//W3C//DTD SVG 20010904//EN"
 "http://www.w3.org/TR/2001/REC-SVG-20010904/DTD/svg10.dtd">
<svg version="1.0" xmlns="http://www.w3.org/2000/svg"
 width="36px" height="36px"  viewBox="0 0 110.000000 110.000000"
 preserveAspectRatio="xMidYMid meet">
<metadata>
Created by potrace 1.10, written by Peter Selinger 2001-2011
</metadata>
<g transform="translate(0.000000,110.000000) scale(0.100000,-0.100000)"
fill="#000000" stroke="none">
<path d="M143 807 c-19 -19 -23 -34 -23 -89 0 -58 2 -66 21 -71 23 -6 17 -27
-7 -27 -11 0 -14 -21 -14 -109 0 -101 2 -110 20 -116 11 -3 29 -3 40 0 19 6
20 2 20 -59 l0 -66 125 0 125 0 0 29 c0 17 5 33 11 36 14 10 18 4 21 -33 l2
-32 208 0 c159 0 208 3 209 13 0 6 1 35 2 62 2 38 6 49 16 47 8 -2 25 -1 38 3
22 5 23 9 23 114 0 102 -1 109 -21 114 -23 6 -17 27 7 27 11 0 14 16 14 74 0
66 -2 75 -20 81 -11 4 -18 11 -15 16 4 5 -148 9 -387 8 -392 0 -393 0 -415
-22z m805 -76 c2 -41 -1 -57 -12 -63 -20 -11 -21 -52 -1 -68 11 -9 15 -34 15
-96 l0 -84 -396 2 -396 3 0 82 c0 58 5 88 16 104 14 21 9 50 -12 62 -4 3 -5
30 -4 61 l4 56 391 -2 392 -3 3 -54z m-70 -381 c3 -33 0 -40 -15 -40 -14 0
-19 7 -18 27 0 14 -6 28 -12 30 -9 3 -13 -6 -13 -26 0 -21 -5 -31 -15 -31 -10
0 -15 10 -15 30 0 20 -5 30 -15 30 -10 0 -15 -10 -15 -30 0 -21 -5 -30 -16
-30 -11 0 -15 8 -12 28 2 19 -2 27 -12 27 -10 0 -14 -8 -12 -27 3 -20 -1 -28
-12 -28 -11 0 -16 9 -16 30 0 20 -5 30 -15 30 -10 0 -15 -10 -15 -30 0 -20 -5
-30 -15 -30 -10 0 -15 10 -15 30 0 21 -5 30 -16 30 -12 0 -15 -7 -12 -30 4
-24 1 -30 -13 -30 -13 0 -17 7 -16 28 1 18 -3 27 -13 27 -10 0 -14 -8 -12 -27
3 -20 -1 -28 -12 -28 -9 0 -16 6 -16 13 0 21 -37 50 -55 43 -8 -3 -20 -17 -27
-31 -16 -36 -39 -33 -31 5 4 23 2 30 -11 30 -11 0 -16 -9 -16 -30 0 -20 -5
-30 -15 -30 -10 0 -15 10 -15 30 0 20 -5 30 -15 30 -10 0 -15 -10 -15 -30 0
-21 -5 -30 -16 -30 -11 0 -15 8 -12 28 2 19 -2 27 -12 27 -10 0 -14 -8 -12
-27 2 -22 -2 -28 -16 -28 -15 0 -18 7 -16 43 2 23 3 42 3 42 1 0 146 -1 323
-2 l323 -2 3 -41z"/>
<path d="M230 735 c0 0 -1 -57 -3 -128 l-2 -127 73 0 72 0 0 124 0 124 -70 4
c-39 2 -70 3 -70 3z m110 -127 l0 -98 -42 0 -43 0 2 97 c1 54 2 98 2 98 1 0
19 0 41 0 l40 1 0 -98z"/>
<path d="M400 735 c0 0 -2 -57 -3 -128 l-2 -127 73 0 73 0 -3 126 -3 126 -68
2 c-37 0 -67 1 -67 1z m108 -129 l3 -96 -46 0 -45 0 0 93 c0 52 2 96 4 98 2 2
22 4 43 3 l38 -1 3 -97z"/>
<path d="M570 735 c0 0 -1 -57 -3 -128 l-2 -127 73 0 72 0 0 124 0 124 -70 4
c-39 2 -70 3 -70 3z m108 -129 l3 -96 -46 0 -45 0 0 93 c0 52 2 96 4 98 2 2
22 4 43 3 l38 -1 3 -97z"/>
<path d="M734 731 c-2 -2 -4 -60 -4 -128 l0 -123 75 0 75 0 0 124 0 124 -71 4
c-39 2 -73 1 -75 -1z m114 -125 l3 -96 -46 0 -45 0 0 93 c0 52 2 96 4 98 2 2
22 4 43 3 l38 -1 3 -97z"/>
</g>
</svg>
