<?xml version="1.0" standalone="no"?>
<!DOCTYPE svg PUBLIC "-//W3C//DTD SVG 20010904//EN"
 "http://www.w3.org/TR/2001/REC-SVG-20010904/DTD/svg10.dtd">
<svg version="1.0" xmlns="http://www.w3.org/2000/svg"
 width="36px" height="36px"  viewBox="0 0 110.000000 110.000000"
 preserveAspectRatio="xMidYMid meet">
<metadata>
Created by potrace 1.10, written by Peter Selinger 2001-2011
</metadata>
<g transform="translate(0.000000,110.000000) scale(0.100000,-0.100000)"
fill="#000000" stroke="none">
<path d="M261 948 l-31 -32 0 -366 0 -366 28 -32 29 -32 262 0 263 0 29 29 29
29 0 370 0 370 -31 31 -31 31 -258 0 -258 0 -31 -32z m567 -393 c2 -348 1
-381 -15 -392 -27 -20 -37 -16 -71 32 l-32 45 -159 0 -160 0 -31 -45 c-33 -48
-40 -51 -71 -35 -18 10 -19 25 -19 380 0 202 3 376 6 384 6 15 37 16 278 14
l271 -3 3 -380z m-401 -372 c-2 -22 -8 -29 -30 -31 -31 -4 -33 0 -11 33 22 34
43 32 41 -2z m53 -3 c0 -20 -5 -30 -15 -30 -10 0 -15 10 -15 30 0 20 5 30 15
30 10 0 15 -10 15 -30z m60 0 c0 -20 -5 -30 -15 -30 -10 0 -15 10 -15 30 0 20
5 30 15 30 10 0 15 -10 15 -30z m52 5 c3 -14 1 -28 -3 -31 -15 -9 -29 6 -29
32 0 32 26 31 32 -1z m58 -5 c0 -20 -5 -30 -15 -30 -10 0 -15 10 -15 30 0 20
5 30 15 30 10 0 15 -10 15 -30z m70 0 l21 -30 -30 0 c-28 0 -31 3 -31 30 0 17
4 30 9 30 5 0 19 -13 31 -30z"/>
<path d="M340 760 c-18 -18 -20 -33 -20 -166 0 -81 5 -154 10 -165 10 -18 23
-19 220 -19 197 0 210 1 220 19 5 11 10 85 10 170 0 194 17 181 -232 181 -175
0 -189 -1 -208 -20z m408 -167 l3 -153 -201 0 -200 0 0 148 c0 82 3 152 7 156
4 3 93 5 197 4 l191 -3 3 -152z"/>
<path d="M420 645 c-18 -21 -8 -48 23 -63 33 -16 26 -35 -9 -26 -26 7 -31 -5
-12 -24 18 -18 45 -14 62 10 17 24 6 58 -19 58 -17 0 -28 17 -20 30 5 8 11 7
21 -1 17 -14 29 -6 21 16 -8 19 -51 20 -67 0z"/>
<path d="M520 645 c-18 -21 -8 -48 24 -63 20 -10 25 -17 17 -25 -7 -7 -14 -7
-25 2 -10 8 -16 9 -21 1 -9 -14 13 -40 34 -40 45 0 57 64 16 80 -14 5 -25 13
-25 18 0 17 13 22 27 10 18 -15 29 -2 13 17 -16 19 -44 19 -60 0z"/>
<path d="M617 653 c-4 -3 -7 -33 -7 -65 0 -65 12 -78 59 -62 61 22 47 134 -18
134 -15 0 -31 -3 -34 -7z m61 -66 c-2 -24 -8 -33 -25 -35 -19 -3 -21 1 -18 40
2 24 4 44 4 46 1 1 10 -2 22 -8 15 -9 19 -19 17 -43z"/>
<path d="M357 374 c-11 -12 3 -24 29 -24 15 0 24 6 24 15 0 15 -40 21 -53 9z"/>
<path d="M440 365 c0 -13 16 -15 113 -13 148 4 148 22 0 26 -97 2 -113 0 -113
-13z"/>
<path d="M690 365 c0 -10 10 -15 30 -15 20 0 30 5 30 15 0 10 -10 15 -30 15
-20 0 -30 -5 -30 -15z"/>
</g>
</svg>
