<?xml version="1.0" encoding="UTF-8"?>
<svg version="1.1" xmlns="http://www.w3.org/2000/svg" width="572" height="421">
<path d="M0 0 C0.1014521 7.31392566 0.17148763 14.62766974 0.21972656 21.94213867 C0.23983705 24.43016338 0.26712927 26.91814086 0.30175781 29.40600586 C0.35029853 32.98302875 0.37297495 36.55942651 0.390625 40.13671875 C0.41127014 41.24834885 0.43191528 42.35997894 0.45318604 43.5052948 C0.45542649 51.22278953 0.45542649 51.22278953 -1.89941406 55.24145508 C-4 57 -4 57 -6 57 C-6.268125 57.639375 -6.53625 58.27875 -6.8125 58.9375 C-8 61 -8 61 -11 62 C-11.71596013 63.30752565 -12.37795672 64.64527332 -13 66 C-21.525 77.175 -21.525 77.175 -27 79 C-24.82744435 83.12061388 -22.40412981 85.57441785 -18.75 88.4375 C-17.77417969 89.21351563 -16.79835938 89.98953125 -15.79296875 90.7890625 C-14.87128906 91.51867187 -13.94960938 92.24828125 -13 93 C-9.16565061 96.1824399 -5.46413842 99.41214235 -2 103 C-1.47593063 103.4306929 -0.95186127 103.8613858 -0.41191101 104.30513 C1.49270167 106.59144327 1.36287891 107.97902392 1.34057617 110.93041992 C1.34034958 111.93123093 1.34012299 112.93204193 1.33988953 113.96318054 C1.32440567 115.04138565 1.30892181 116.11959076 1.29296875 117.23046875 C1.28872391 118.33602615 1.28447906 119.44158356 1.28010559 120.5806427 C1.26329437 124.11650812 1.22563685 127.65180645 1.1875 131.1875 C1.17245636 133.58267407 1.1587674 135.97785706 1.14648438 138.37304688 C1.11338285 144.24889185 1.06315893 150.12440542 1 156 C-2.18937353 156.96597126 -5.3797519 157.92858254 -8.5703125 158.890625 C-9.9147644 159.29788818 -9.9147644 159.29788818 -11.28637695 159.71337891 C-17.04969261 161.44896779 -22.81400487 163.01792984 -28.66796875 164.41796875 C-30.53060419 164.88284761 -32.36624471 165.4554149 -34.1875 166.0625 C-36.50543224 166.83514408 -38.67928548 167.3802894 -41.0625 167.875 C-44.93726361 168.69691955 -48.66265982 169.80093312 -52.4375 171 C-57.16358009 172.49099849 -61.80246929 173.61641779 -66.671875 174.50390625 C-69.0325611 175.00693836 -71.22403708 175.70022981 -73.5 176.5 C-76.55254594 177.57078837 -79.50630785 178.35108122 -82.6875 178.9375 C-88.05977409 179.93699285 -93.23579567 181.4574727 -98.4765625 182.9921875 C-102.68684535 184.19645909 -106.92603402 185.2394523 -111.1796875 186.27734375 C-114.70936864 187.18176343 -118.17823596 188.24252902 -121.6484375 189.3515625 C-124 190 -124 190 -126.89453125 190.4765625 C-130.12826246 191.02161908 -133.16537545 191.83036121 -136.3125 192.75 C-138.13974609 193.27980469 -138.13974609 193.27980469 -140.00390625 193.8203125 C-142.7858196 194.63774675 -145.56344164 195.46874166 -148.33984375 196.3046875 C-155.13596872 198.34367541 -161.84657403 200.33814798 -168.83984375 201.59765625 C-172.26918693 202.23639467 -175.62422456 203.12479896 -179 204 C-179.33 203.01 -179.66 202.02 -180 201 C-181.66031862 200.31767728 -183.32808467 199.6533922 -185 199 C-187.21875 197.1875 -187.21875 197.1875 -189.5 195 C-194.05240411 190.76344896 -198.80982236 186.97636775 -203.796875 183.27539062 C-207.89957572 180.20084856 -207.89957572 180.20084856 -209 178 C-209.09281235 176.36545388 -209.1219217 174.72711348 -209.12025452 173.0899353 C-209.12162918 172.05224503 -209.12300385 171.01455475 -209.12442017 169.94541931 C-209.12082489 168.80246902 -209.11722961 167.65951874 -209.11352539 166.48193359 C-209.11367142 165.28195236 -209.11381744 164.08197113 -209.1139679 162.84562683 C-209.11338957 159.55037139 -209.10836565 156.25517818 -209.10139394 152.95993376 C-209.09515327 149.51793824 -209.09455604 146.07594195 -209.09336853 142.63394165 C-209.09025732 136.11392065 -209.08204676 129.59391636 -209.07201904 123.07390273 C-209.06085138 115.65199262 -209.05534581 108.23008173 -209.05032361 100.80816531 C-209.03986398 85.53876718 -209.0222686 70.26938575 -209 55 C-205.55233433 54.05637216 -202.10432053 53.11402229 -198.65625 52.171875 C-197.21427246 51.77718018 -197.21427246 51.77718018 -195.74316406 51.37451172 C-188.52988694 49.40449906 -181.30304452 47.4918 -174.06367493 45.62010193 C-170.96329246 44.81800361 -167.93013567 43.97636037 -164.89453125 42.94921875 C-161.6847161 41.8966073 -158.49999021 41.22053678 -155.1875 40.5625 C-150.47482256 39.57966842 -146.02795001 38.41501719 -141.5 36.80859375 C-137.57075913 35.5377299 -133.56011365 34.59915183 -129.55151367 33.61694336 C-124.33273478 32.33718101 -119.13195662 31.00009929 -113.9375 29.625 C-106.79518081 27.73632838 -99.64924883 25.86227937 -92.5 24 C-90.56378476 23.49485806 -88.62758673 22.98965017 -86.69140625 22.484375 C-83.86994254 21.74813204 -81.04831571 21.01255307 -78.22607422 20.27929688 C-75.62941531 19.60464477 -73.03340468 18.92754745 -70.4375 18.25 C-69.67050781 18.05148438 -68.90351563 17.85296875 -68.11328125 17.6484375 C-64.01582999 16.57634452 -60.01592949 15.3521259 -56 14 C-53.93260145 13.53316807 -51.86460742 13.06873427 -49.79296875 12.62109375 C-39.88331437 10.41740837 -30.12304977 7.8788506 -20.49194336 4.6628418 C-16.3385544 3.30403374 -12.32638927 2.56295186 -8 2 C-1.76470588 0 -1.76470588 0 0 0 Z M-69.90454102 38.23095703 C-74.40460234 39.57400056 -78.86026088 40.6429637 -83.484375 41.4765625 C-89.07244599 42.63929777 -94.5256685 44.39653448 -100 46 C-108.00775231 48.30854121 -116.09395378 50.23926764 -124.21313477 52.11108398 C-129.44607884 53.33257867 -134.5756472 54.74465001 -139.7121582 56.32177734 C-143.76429352 57.52301861 -147.89075142 58.36377954 -152.01953125 59.25390625 C-154.8190546 59.95470436 -157.33094903 60.91977701 -160 62 C-161.0725 62.144375 -162.145 62.28875 -163.25 62.4375 C-170.64698799 63.47170763 -170.64698799 63.47170763 -177 67 C-177.08851529 69.59359322 -177.11525945 72.16039691 -177.09765625 74.75390625 C-177.0962413 75.52935287 -177.09482635 76.3047995 -177.09336853 77.10374451 C-177.08775345 79.59003494 -177.07519846 82.0762366 -177.0625 84.5625 C-177.05748694 86.24413933 -177.0529237 87.92578006 -177.04882812 89.60742188 C-177.03777913 93.73831566 -177.02050445 97.86914276 -177 102 C-175.11692139 102.02380737 -175.11692139 102.02380737 -173.19580078 102.0480957 C-172.13656906 102.06148735 -172.13656906 102.06148735 -171.05593872 102.07514954 C-168.12222203 101.96791509 -165.63727684 101.15033018 -162.875 100.1875 C-158.19187653 98.64456837 -153.582787 97.41867058 -148.75 96.4375 C-144.05424137 95.48172612 -139.6463266 94.29396488 -135.140625 92.68359375 C-131.9656521 91.66968817 -128.72586535 91.13470814 -125.453125 90.52734375 C-123.12680225 90.02725844 -120.98829404 89.36248287 -118.75 88.5625 C-114.88275626 87.19799379 -111.01700875 86.32322819 -107 85.5 C-102.31347014 84.53866054 -97.91990674 83.38287713 -93.43359375 81.74609375 C-89.03516515 80.39761885 -84.47076346 79.71828629 -79.94140625 78.94140625 C-76.88595476 78.2987666 -76.88595476 78.2987666 -75.58984375 75.90234375 C-75.39519531 75.27457031 -75.20054687 74.64679688 -75 74 C-74.34 74 -73.68 74 -73 74 C-72.731875 73.195625 -72.46375 72.39125 -72.1875 71.5625 C-71.795625 70.716875 -71.40375 69.87125 -71 69 C-70.01 68.67 -69.02 68.34 -68 68 C-66.05053578 65.85038218 -66.05053578 65.85038218 -64.125 63.25 C-61.27125681 59.5689331 -58.29365825 56.29365825 -55 53 C-53.99431758 51.33675599 -52.99335201 49.67063747 -52 48 C-51.01 47.34 -50.02 46.68 -49 46 C-48.67 45.01 -48.34 44.02 -48 43 C-47.195625 42.236875 -46.39125 41.47375 -45.5625 40.6875 C-42.83508949 37.82704508 -41.96747167 35.78193472 -41 32 C-50.83274377 31.6590837 -60.57955683 35.41939369 -69.90454102 38.23095703 Z M-51.21875 105.2109375 C-54.180401 106.05118118 -57.08123835 106.54651026 -60.125 107 C-64.31237852 107.64298579 -67.85690804 108.60083271 -71.75 110.21484375 C-75.89948187 111.66284003 -80.23947061 112.3705905 -84.5390625 113.24609375 C-88.32684763 114.07119819 -91.96580398 115.15871713 -95.66015625 116.3203125 C-97.99400314 116.99825801 -100.29940605 117.49046764 -102.6875 117.9375 C-108.29821508 118.99446359 -113.77429215 120.50311471 -119.28125 121.99609375 C-125.8816383 123.77792126 -132.51109937 125.42840803 -139.171875 126.96875 C-146.11562826 128.57563223 -152.99062932 130.20381844 -159.79296875 132.34765625 C-162.83308784 133.24624012 -165.91551786 133.87324313 -169.015625 134.52734375 C-171.45799602 135.1090896 -173.71401654 135.96762037 -176 137 C-174.72553313 140.8234006 -173.43243582 141.04975237 -170 143 C-167.25856655 145.10879496 -164.6301003 147.315956 -162 149.5625 C-159.40352916 151.67213256 -156.8838447 153.3304057 -154 155 C-153.278125 155.556875 -152.55625 156.11375 -151.8125 156.6875 C-150.10298833 158.19550327 -150.10298833 158.19550327 -148 158 C-148 158.66 -148 159.32 -148 160 C-144.36676311 162.96235695 -144.36676311 162.96235695 -140 164 C-140 164.66 -140 165.32 -140 166 C-139.47921875 165.86980469 -138.9584375 165.73960937 -138.421875 165.60546875 C-135.36458333 164.84114583 -132.30729167 164.07682292 -129.25 163.3125 C-128.57114746 163.14242432 -127.89229492 162.97234863 -127.19287109 162.79711914 C-122.78404946 161.69321392 -118.37332664 160.59737698 -113.9609375 159.5078125 C-112.39037598 159.11855591 -112.39037598 159.11855591 -110.78808594 158.72143555 C-108.72671577 158.21054796 -106.66488738 157.70150463 -104.60253906 157.19458008 C-99.09456382 155.82673877 -93.65240883 154.34254896 -88.23657227 152.64453125 C-85.94249234 151.98342755 -83.65774908 151.50435097 -81.3125 151.0625 C-71.58658187 148.88225916 -66.57857921 143.00997626 -61 135 C-60.66613281 134.10152344 -60.33226562 133.20304687 -59.98828125 132.27734375 C-59 130 -59 130 -57.1875 129.1171875 C-53.77237107 127.37303237 -52.0874469 124.23086796 -50 121.125 C-47.22537178 117.04713731 -44.5068558 113.49062036 -41 110 C-41 109.34 -41 108.68 -41 108 C-40.01 107.67 -39.02 107.34 -38 107 C-38 105.68 -38 104.36 -38 103 C-42.89190893 102.61379666 -46.63882849 103.73487846 -51.21875 105.2109375 Z " fill="#FEFEFE" transform="translate(475,194)"/>
<path d="M0 0 C0 0.66 0 1.32 0 2 C0.72316406 2.24105469 1.44632813 2.48210938 2.19140625 2.73046875 C6.38106145 4.62426282 9.22806154 7.64547939 12.55078125 10.76953125 C14.5217737 12.5644861 16.43071008 14.01455433 18.625 15.5 C21.29037837 18.30566144 21.39395001 18.98164204 21.5 22.6875 C21.33975482 26.66024518 21.33975482 26.66024518 19 29 C16.64389671 29.7071281 14.32921395 30.31779269 11.9375 30.875 C11.23085205 31.04572021 10.5242041 31.21644043 9.79614258 31.39233398 C7.53268292 31.93671036 5.26685295 32.46994226 3 33 C2.26072266 33.17321777 1.52144531 33.34643555 0.75976562 33.52490234 C-2.15369907 34.20698223 -5.06719172 34.88892472 -7.98144531 35.56762695 C-12.81121971 36.69915177 -17.59830714 37.9414459 -22.375 39.28125 C-26.28873801 40.35286874 -30.23157544 41.30148547 -34.17578125 42.25390625 C-37.01290067 42.96562639 -37.01290067 42.96562639 -39.7734375 43.96044922 C-42.98767772 44.99602994 -46.13954095 45.71551108 -49.44921875 46.37890625 C-56.98565029 47.95464262 -64.38726942 49.90859904 -71.8125 51.9375 C-81.1994888 54.47898766 -90.59251428 56.91105602 -100.07421875 59.07421875 C-105.38385982 60.30181101 -110.63964099 61.73471959 -115.90356445 63.14306641 C-122.46310344 64.88717472 -129.05503312 66.43423223 -135.6796875 67.91015625 C-141.51446602 69.3820398 -147.24853824 71.23031946 -153 73 C-153 83.89 -153 94.78 -153 106 C-145.73339758 106 -141.3580204 105.92303099 -134.9375 103.625 C-130.10952587 102.00708226 -125.35849408 100.53272143 -120.3671875 99.515625 C-112.9588766 97.90193352 -105.64741103 95.74580839 -98.34765625 93.69921875 C-97.56189209 93.47919189 -96.77612793 93.25916504 -95.96655273 93.0324707 C-94.45365598 92.6076734 -92.94139926 92.18058702 -91.42993164 91.75073242 C-78.09787951 88 -78.09787951 88 -72 88 C-72 93.28 -72 98.56 -72 104 C-74.43375 104.598125 -76.8675 105.19625 -79.375 105.8125 C-84.07895875 106.9766158 -88.74796976 108.17905305 -93.375 109.625 C-96.50774013 110.5997461 -99.58597083 111.34381863 -102.8125 111.9375 C-107.9624156 112.89600164 -112.85444186 114.45756799 -117.82421875 116.09765625 C-121.21014017 117.05970772 -124.51826845 117.50260978 -128 118 C-131.39608651 118.94774507 -134.74786455 119.9993246 -138.109375 121.0625 C-142.9754783 122.23505501 -148.01517431 122.54683403 -153 123 C-153 135.54 -153 148.08 -153 161 C-148.06977269 160.29568181 -144.29168534 159.5819385 -139.6875 158.0625 C-135.80187772 156.82636703 -132.01205123 155.72648889 -128 155 C-122.91224381 154.07495342 -118.09405677 152.50702979 -113.171875 150.94140625 C-109.5774621 149.87459159 -105.99613592 149.16515945 -102.3125 148.4921875 C-100.0355952 148.007576 -97.94099761 147.34384841 -95.75 146.5625 C-92.21581441 145.32766407 -88.73311259 144.48592848 -85.0625 143.75 C-78.15235609 142.32776133 -71.36927807 140.53918661 -64.5625 138.6875 C-63.44883057 138.38465088 -62.33516113 138.08180176 -61.18774414 137.76977539 C-58.91563332 137.15141302 -56.64357945 136.53284137 -54.37158203 135.9140625 C-49.08725556 134.48143989 -43.79549471 133.07820515 -38.5 131.6875 C-37.58806885 131.44539795 -36.6761377 131.2032959 -35.73657227 130.95385742 C-31.42538235 129.82478367 -27.12645676 128.80162502 -22.75 127.95703125 C-18.90008838 127.21192365 -15.22868968 126.23008319 -11.5 125 C-6.88333937 123.53302373 -2.3738406 122.42736901 2.38671875 121.5703125 C6.69263585 120.63060563 10.84223415 119.19881589 15.01953125 117.8046875 C18 117 18 117 23 117 C23 128.55 23 140.1 23 152 C17.2421138 153.9192954 11.6836321 155.6706121 5.8125 157.0625 C2.14913257 157.9370719 -1.47426445 158.82273276 -5.046875 160.02734375 C-9.50113719 161.49442217 -14.06676985 162.3010702 -18.66015625 163.21875 C-21.6260426 163.91252458 -24.1869778 164.86653102 -27 166 C-28.74162242 166.35624095 -30.4928996 166.66776968 -32.25 166.9375 C-36.6236677 167.68108206 -40.59942699 168.80163243 -44.76953125 170.28515625 C-47.08840718 171.02833365 -49.35521604 171.50173416 -51.75 171.9375 C-55.64793672 172.66311591 -59.34558633 173.6758527 -63.125 174.875 C-71.30913558 177.4706785 -79.61329487 179.46244513 -87.95825195 181.47143555 C-93.61448055 182.85369856 -99.16994117 184.51511235 -104.73242188 186.23242188 C-109.15511646 187.56446183 -113.41807766 188.3476411 -118 189 C-120.75812031 189.69965622 -123.46966411 190.53385366 -126.1875 191.375 C-131.90850262 193.10011929 -137.62439907 194.71134623 -143.43359375 196.1171875 C-149.52038099 197.62388401 -155.57905225 199.24055221 -161.64111328 200.84350586 C-179.13638315 205.43977126 -179.13638315 205.43977126 -185 205 C-186 204 -186 204 -186.12304783 201.4718771 C-186.12212604 200.33714993 -186.12120424 199.20242277 -186.12025452 198.03330994 C-186.12162918 196.73615555 -186.12300385 195.43900116 -186.12442017 194.10253906 C-186.12088055 192.6516111 -186.11724573 191.20068337 -186.11352539 189.74975586 C-186.11324353 188.23238629 -186.11340123 186.71501658 -186.1139679 185.19764709 C-186.11425591 181.06559484 -186.10835858 176.93357137 -186.10139394 172.80152583 C-186.09516102 168.48801108 -186.09455665 164.17449573 -186.09336853 159.86097717 C-186.09025503 151.68699883 -186.08204139 143.51303379 -186.07201904 135.33906132 C-186.06085848 126.03571031 -186.0553476 116.73235868 -186.05032361 107.42900264 C-186.03985879 88.28599421 -186.02225899 69.14299817 -186 50 C-184.41661725 49.35429222 -182.83197967 48.71166097 -181.24682617 48.0703125 C-179.92336433 47.53301514 -179.92336433 47.53301514 -178.57316589 46.98486328 C-175.17970551 45.68603737 -171.85266929 44.82862897 -168.3125 44 C-166.91770743 43.66645548 -165.52318148 43.3317943 -164.12890625 42.99609375 C-163.43684082 42.83093262 -162.74477539 42.66577148 -162.03173828 42.49560547 C-158.92345147 41.73739564 -155.8379611 40.89917281 -152.75 40.0625 C-147.67520981 38.69455973 -142.58925212 37.39661083 -137.48535156 36.1418457 C-129.88617853 34.27332476 -122.39054611 32.27148413 -114.9296875 29.8984375 C-111.04064786 28.70579868 -107.11124047 27.74038799 -103.16015625 26.77734375 C-94.74733418 24.70793511 -86.3914356 22.46971549 -78.125 19.875 C-73.95530306 18.57102205 -69.83210583 17.44859645 -65.55859375 16.5546875 C-56.02787884 14.48848671 -46.66466086 11.95483628 -37.37109375 9.0078125 C-32.8036634 7.64234665 -28.19018689 6.50380445 -23.5546875 5.39453125 C-19.62480521 4.44593897 -15.82804732 3.29368912 -12 2 C-10.44422046 1.59802825 -8.88187519 1.22009821 -7.3125 0.875 C-6.56613281 0.70742188 -5.81976563 0.53984375 -5.05078125 0.3671875 C-3 0 -3 0 0 0 Z " fill="#FEFEFE" transform="translate(304,47)"/>
<path d="M0 0 C0.66 0 1.32 0 2 0 C2 0.66 2 1.32 2 2 C2.55042969 2.24105469 3.10085938 2.48210937 3.66796875 2.73046875 C6.52938474 4.28819102 8.82015956 6.21498577 11.3125 8.3125 C14.51351163 10.97786711 17.69866202 13.56814827 21.125 15.9375 C24 18 24 18 25 20 C25.5775 20.268125 26.155 20.53625 26.75 20.8125 C29.72616989 22.38325633 31.62717815 24.61681648 34 27 C35.70859799 28.46188799 37.43842601 29.89928955 39.1875 31.3125 C40.14140625 32.0859375 41.0953125 32.859375 42.078125 33.65625 C45.64081543 36.51402307 49.21749726 39.35378286 52.80859375 42.17578125 C55 44 55 44 57.1640625 46.171875 C58.86550052 48.06503928 58.86550052 48.06503928 60.9375 48.9375 C63.24305136 50.12520827 64.67741622 51.69534405 66.47680664 53.53100586 C69.38648968 56.33715474 72.59132353 58.79506419 75.75 61.3125 C81.08471662 65.59387266 86.30167919 69.93437975 91.30078125 74.609375 C93.06069587 76.21807212 93.06069587 76.21807212 96 77 C99.02180067 79.79516562 101.57156912 82.6891451 104 86 C95.46659499 89.02374155 87.09731478 91.54667186 78.19921875 93.3203125 C75.39721643 93.9156097 72.72832693 94.63654906 70 95.5 C64.98941913 97.07498715 59.91214348 98.11740071 54.7734375 99.1875 C45.63414223 101.15538138 36.59868179 103.50686507 27.625 106.125 C23.70215521 107.26675664 19.82583999 108.29775332 15.8125 109.0625 C10.48093224 110.1011171 5.24039427 111.57080156 0 113 C0 75.71 0 38.42 0 0 Z " fill="#FEFEFE" transform="translate(346,83)"/>
<path d="M0 0 C0 35.31 0 70.62 0 107 C-7.69230769 102.38461538 -7.69230769 102.38461538 -11 100 C-11 99.34 -11 98.68 -11 98 C-12.65 97.34 -14.3 96.68 -16 96 C-16 95.34 -16 94.68 -16 94 C-16.54785156 93.76023437 -17.09570312 93.52046875 -17.66015625 93.2734375 C-20.5600794 91.69518217 -22.90372008 89.74058323 -25.4375 87.625 C-29.55191471 84.2021787 -29.55191471 84.2021787 -33.71875 80.84375 C-36 79 -36 79 -38.0625 76.875 C-39.85328359 74.94625657 -39.85328359 74.94625657 -41.9375 74.0625 C-44.21367231 72.88992639 -45.64326397 71.37890179 -47.3984375 69.54296875 C-50.19716052 66.84663804 -53.31080678 64.53281485 -56.36328125 62.1328125 C-59.73057037 59.40904974 -62.91508582 56.51069173 -66.08984375 53.56640625 C-68.01695282 51.79599638 -68.01695282 51.79599638 -71 51 C-72 49.66666667 -73 48.33333333 -74 47 C-75.485 46.505 -75.485 46.505 -77 46 C-78.68638844 44.35329129 -80.35027708 42.68343988 -82 41 C-84.88958476 38.61735994 -87.82508948 36.3026047 -90.76953125 33.98828125 C-91.50558594 33.33214844 -92.24164063 32.67601562 -93 32 C-93 31.34 -93 30.68 -93 30 C-93.804375 29.71125 -94.60875 29.4225 -95.4375 29.125 C-98 28 -98 28 -99 26 C-89.06403914 22.72685298 -79.27974868 19.67422538 -69.0078125 17.6484375 C-65.59246938 16.91214275 -62.40013587 15.84540925 -59.11328125 14.6796875 C-56.09546047 13.70907601 -53.03378828 13.17453553 -49.921875 12.58984375 C-40.25289176 10.63795007 -30.78564283 7.98743036 -21.38671875 5.015625 C-17.3868996 3.81614059 -13.3626201 2.76434135 -9.3125 1.75 C-8.26835937 1.48703125 -8.26835937 1.48703125 -7.203125 1.21875 C-2.2593246 0 -2.2593246 0 0 0 Z " fill="#FEFEFE" transform="translate(234,238)"/>
<path d="M0 0 C2.140625 1.55859375 2.140625 1.55859375 4.25 3.4375 C4.95640625 4.05496094 5.6628125 4.67242187 6.390625 5.30859375 C8 7 8 7 8 9 C4.50039331 9.95977345 1.00024412 10.91755409 -2.5 11.875 C-3.97339844 12.27912109 -3.97339844 12.27912109 -5.4765625 12.69140625 C-10.24046543 13.99353972 -15.00678672 15.2636645 -19.80175781 16.44580078 C-24.92500955 17.73742466 -30.02274148 19.1283017 -35.125 20.5 C-36.27871094 20.80808594 -37.43242187 21.11617187 -38.62109375 21.43359375 C-39.73871094 21.73394531 -40.85632813 22.03429687 -42.0078125 22.34375 C-43.01473145 22.61380859 -44.02165039 22.88386719 -45.05908203 23.16210938 C-47.08965225 23.74063478 -49.10591666 24.37098469 -51.10766602 25.04248047 C-53.50209264 25.83516564 -55.80527491 26.46433437 -58.26953125 26.9765625 C-63.10090055 28.01337172 -67.8941622 29.17549416 -72.6875 30.375 C-73.56325684 30.59414062 -74.43901367 30.81328125 -75.34130859 31.0390625 C-81.41264038 32.57109121 -87.44067993 34.21864862 -93.453125 35.96875 C-107.32725064 40.00263675 -121.28134598 44.00864055 -135.4375 46.9375 C-139.64681999 47.84461244 -143.75198179 49.08038712 -147.875 50.3125 C-155.4961602 52.58952836 -163.15302831 54.67282259 -170.85546875 56.65625 C-174.64176854 57.63355185 -178.40981082 58.66588553 -182.17578125 59.71875 C-183.21653809 60.00435791 -184.25729492 60.28996582 -185.32958984 60.58422852 C-187.36815609 61.14391344 -189.40380411 61.71436241 -191.43603516 62.29663086 C-192.82701416 62.67380249 -192.82701416 62.67380249 -194.24609375 63.05859375 C-195.06779053 63.28861084 -195.8894873 63.51862793 -196.73608398 63.75561523 C-200.26350713 64.13639282 -202.17741471 62.61526705 -204.921875 60.5625 C-205.52515625 60.046875 -206.1284375 59.53125 -206.75 59 C-207.36359375 58.484375 -207.9771875 57.96875 -208.609375 57.4375 C-210 56 -210 56 -210 54 C-190.51792193 48.40679561 -171.04859832 42.92605195 -151.359375 38.109375 C-141.89429309 35.77280666 -132.48216041 33.26023233 -123.07128906 30.71435547 C-109.14385583 26.94980366 -95.19501346 23.2682016 -81.1875 19.8125 C-76.19811158 18.5766433 -71.28136032 17.218938 -66.37109375 15.703125 C-62.86701253 14.66402348 -59.3224052 13.81268238 -55.7734375 12.94140625 C-47.81007062 10.95468635 -39.87679559 8.84900161 -31.9375 6.76855469 C-29.12574781 6.03290011 -26.31302383 5.30108717 -23.5 4.5703125 C-21.81248043 4.13028339 -20.12497944 3.69018301 -18.4375 3.25 C-17.67107178 3.05164551 -16.90464355 2.85329102 -16.11499023 2.64892578 C-12.91229991 1.81088549 -9.83556728 0.93963614 -6.72265625 -0.203125 C-3.8225773 -1.05192859 -2.72663262 -1.21121077 0 0 Z " fill="#FCFCFC" transform="translate(467,182)"/>
<path d="M0 0 C2.8125 2.5 2.8125 2.5 5 5 C5 5.66 5 6.32 5 7 C2.95990245 7.65077296 0.91784331 8.29539824 -1.125 8.9375 C-2.26195312 9.29714844 -3.39890625 9.65679687 -4.5703125 10.02734375 C-7.72085907 10.92083589 -10.77502784 11.46392283 -14 12 C-16.09306097 12.61357498 -18.17648732 13.26079943 -20.25 13.9375 C-24.15523928 15.17003593 -27.97086958 16.26922634 -32 17 C-37.10670807 17.93000212 -41.95286445 19.4886152 -46.89453125 21.05859375 C-50.20072938 22.06085004 -53.49848435 22.80530779 -56.87890625 23.5 C-59.91984136 24.21683185 -62.82767495 25.24998355 -65.76171875 26.31640625 C-68 27 -68 27 -70.7265625 27.44140625 C-74.80704593 28.13771786 -78.71048717 29.23996758 -82.6875 30.375 C-84.29029591 30.82706647 -85.89316036 31.27889002 -87.49609375 31.73046875 C-88.26808105 31.94880371 -89.04006836 32.16713867 -89.83544922 32.39208984 C-92.63470796 33.17825658 -95.4417266 33.93424922 -98.25 34.6875 C-100.90208822 35.40384553 -103.46482587 36.16126612 -106.0625 37.0625 C-108.59293716 37.87008633 -110.9584898 38.39509427 -113.5625 38.875 C-118.75204809 39.86311485 -123.69045815 41.40481524 -128.72265625 42.99609375 C-133.76531199 44.54074515 -138.87437094 45.76490866 -144 47 C-146.73058876 47.66095946 -149.45970024 48.32762156 -152.1875 49 C-152.87497314 49.16927002 -153.56244629 49.33854004 -154.27075195 49.51293945 C-157.90940954 50.42447084 -161.46441275 51.4356945 -165 52.6875 C-166.33075781 53.13277258 -167.66398519 53.57075829 -169 54 C-170.02480469 54.3403125 -170.02480469 54.3403125 -171.0703125 54.6875 C-173.125 55.1875 -173.125 55.1875 -177 55 C-179.85755035 52.69657538 -182.04298281 50.10064911 -184 47 C-184 46.34 -184 45.68 -184 45 C-173.559366 41.79078873 -163.14034967 38.70237685 -152.5234375 36.12890625 C-146.6553156 34.68830265 -140.83114887 33.08227172 -135 31.5 C-111.31025272 25.08561849 -111.31025272 25.08561849 -101.5625 23.0625 C-96.54107819 21.98375349 -91.65069793 20.43956098 -86.73535156 18.96386719 C-80.36534953 17.06766755 -73.95007539 15.44562586 -67.48828125 13.89453125 C-64.05161857 13.059165 -64.05161857 13.059165 -60.96484375 11.9765625 C-57.7496862 10.91755145 -54.56838224 10.22692721 -51.25 9.5625 C-46.23512327 8.51641984 -41.38065558 7.285846 -36.49609375 5.75390625 C-29.4656506 3.63047037 -22.27604666 2.00280337 -15.09375 0.48046875 C-13.66606412 0.1528468 -12.24857677 -0.22188766 -10.84375 -0.63671875 C-6.48212907 -1.91428309 -3.93251109 -2.44453392 0 0 Z " fill="#FCFCFC" transform="translate(294,38)"/>
<path d="M0 0 C1.703125 1.7265625 1.703125 1.7265625 3.25 3.625 C4.03117187 4.57246094 4.03117187 4.57246094 4.828125 5.5390625 C5.40820312 6.26222656 5.40820312 6.26222656 6 7 C0.94796311 9.33069068 -3.88443915 10.8282554 -9.3125 12 C-14.89091481 13.25394109 -20.35790982 14.63945401 -25.81640625 16.3515625 C-28.74051766 17.21990328 -31.69752712 17.84272353 -34.6796875 18.4765625 C-37.16461171 19.03713463 -39.60800008 19.69360152 -42.0625 20.375 C-46.44298352 21.58945129 -50.83759192 22.71960139 -55.25 23.8125 C-65.8592163 26.44169591 -76.42703566 29.22934289 -87 32 C-119.32749506 40.47145616 -119.32749506 40.47145616 -130.44140625 43.02734375 C-137.04420735 44.54650915 -143.5528796 46.06393865 -149.9453125 48.33984375 C-155.20294482 50.02908303 -160.48597775 51 -166 51 C-166 47.04 -166 43.08 -166 39 C-164.63875 38.7525 -163.2775 38.505 -161.875 38.25 C-156.39851926 37.15778053 -151.09554937 35.62767393 -145.73828125 34.0625 C-141.37957303 32.8236613 -136.99503114 31.72332176 -132.59521484 30.64111328 C-126.54881289 29.14921842 -120.52399428 27.57972565 -114.5 26 C-106.09670778 23.79972164 -97.68476061 21.64670544 -89.25292969 19.55810547 C-76.46156342 16.38937299 -63.67725598 13.20465703 -50.93994141 9.82446289 C-44.50282989 8.12068216 -38.05073725 6.48173203 -31.58496094 4.89013672 C-27.18778287 3.80681154 -22.80533684 2.68609622 -18.43359375 1.50390625 C-17.52407959 1.26285156 -16.61456543 1.02179688 -15.67749023 0.7734375 C-13.930451 0.30955693 -12.18625818 -0.16522016 -10.44555664 -0.65234375 C-9.65914795 -0.85859375 -8.87273926 -1.06484375 -8.0625 -1.27734375 C-7.37285156 -1.46546631 -6.68320312 -1.65358887 -5.97265625 -1.84741211 C-3.41804637 -2.04501498 -2.15159169 -1.33921555 0 0 Z " fill="#FCFCFC" transform="translate(320,153)"/>
<path d="M0 0 C3.71866485 1.23955495 5.32283886 3.18554854 8 6 C8.66 6.66 9.32 7.32 10 8 C10.24609566 10.15141487 10.24609566 10.15141487 10.24050903 12.87210083 C10.24325836 13.90137695 10.24600769 14.93065308 10.24884033 15.99111938 C10.24164978 17.12471893 10.23445923 18.25831848 10.22705078 19.42626953 C10.22734283 20.61649719 10.22763489 21.80672485 10.22793579 23.03302002 C10.22677915 26.30146042 10.21673158 29.56973075 10.20278788 32.83813715 C10.19030636 36.25209982 10.18911206 39.66606564 10.18673706 43.08004761 C10.18051469 49.54696901 10.16409367 56.013823 10.14403808 62.48071468 C10.12170259 69.84215927 10.11069158 77.20360704 10.10064721 84.56507707 C10.07972807 99.71008898 10.04453743 114.85503776 10 130 C2.03431328 125.6414167 2.03431328 125.6414167 0 123 C-0.36914349 120.70991993 -0.36914349 120.70991993 -0.36076355 117.96968079 C-0.36488754 116.93061584 -0.36901154 115.8915509 -0.3732605 114.82099915 C-0.36247467 113.68164413 -0.35168884 112.54228912 -0.34057617 111.3684082 C-0.34101425 110.16828094 -0.34145233 108.96815369 -0.34190369 107.73165894 C-0.34017051 104.44039832 -0.32511531 101.14970075 -0.30418181 97.85853982 C-0.28544047 94.41923442 -0.28366659 90.9799217 -0.28010559 87.54057312 C-0.27077761 81.02760419 -0.24615376 74.51478614 -0.21605712 68.00188369 C-0.18253644 60.58722438 -0.16603299 53.17255791 -0.15097082 45.75784171 C-0.11960477 30.50514039 -0.06682977 15.25258964 0 0 Z " fill="#FCFCFC" transform="translate(252,238)"/>
<path d="M0 0 C1.921875 1.84765625 1.921875 1.84765625 3.75 4.0625 C4.36359375 4.79597656 4.9771875 5.52945312 5.609375 6.28515625 C6.29773438 7.13400391 6.29773438 7.13400391 7 8 C6.67 8.66 6.34 9.32 6 10 C3.23105467 10.90701669 0.50225714 11.70160655 -2.3125 12.4375 C-3.53404785 12.76681519 -3.53404785 12.76681519 -4.78027344 13.1027832 C-10.3709886 14.6008874 -15.9818727 16.01345532 -21.60546875 17.3828125 C-24.13379954 17.99975925 -24.13379954 17.99975925 -27.0625 19.0625 C-29.78388847 19.93102824 -32.31191732 20.41482289 -35.125 20.875 C-40.40468381 21.77412871 -45.25445793 23.36495457 -50.30078125 25.12890625 C-53.5110353 26.16492167 -56.66208929 26.5315213 -60 27 C-62.0069343 27.60236177 -64.00617272 28.23057952 -66 28.875 C-73.26848491 31.19346899 -80.50625153 32.59929935 -88 34 C-88 29.38 -88 24.76 -88 20 C-79.36808039 17.22783748 -70.77098545 14.91775236 -61.91339111 12.99234009 C-58.50861519 12.25165697 -55.10789968 11.49276431 -51.70703125 10.734375 C-51.03835022 10.58555374 -50.36966919 10.43673248 -49.6807251 10.28340149 C-43.34858482 8.86766595 -37.05649262 7.31452533 -30.76953125 5.7121582 C-24.62670363 4.14696887 -18.46512063 2.67709369 -12.28759766 1.25512695 C-2.52239986 -1.0060717 -2.52239986 -1.0060717 0 0 Z " fill="#FCFCFC" transform="translate(389,259)"/>
<path d="M0 0 C2.875 2.375 2.875 2.375 5 5 C5.99 5.99 5.99 5.99 7 7 C7 7.99 7 8.98 7 10 C-5.28178215 13.57561802 -17.56951177 16.98080621 -30 20 C-32.77192929 20.68312014 -35.54247304 21.37170961 -38.3125 22.0625 C-38.98289307 22.22951416 -39.65328613 22.39652832 -40.34399414 22.56860352 C-45.02380691 23.74043929 -49.6776937 24.99104584 -54.328125 26.2734375 C-57.37935882 27.10315898 -60.43672804 27.903361 -63.5 28.6875 C-64.4796875 28.93886719 -65.459375 29.19023437 -66.46875 29.44921875 C-69 30 -69 30 -72 30 C-72 25.38 -72 20.76 -72 16 C-62.43145233 13.25528054 -52.91250525 10.67121667 -43.15625 8.6796875 C-40.25103628 8.05405979 -37.41937804 7.3150505 -34.5625 6.5 C-28.93198185 4.90440806 -23.22808616 3.81809405 -17.48046875 2.74609375 C-3.07586207 -0.34176245 -3.07586207 -0.34176245 0 0 Z " fill="#FCFCFC" transform="translate(226,121)"/>
<path d="M0 0 C3 1 3 1 4.66495228 3.16426373 C6.22724203 6.48267823 6.36982855 8.71254081 6.36076355 12.3717804 C6.36488754 13.65760513 6.36901154 14.94342987 6.3732605 16.26821899 C6.36264439 17.68573209 6.35173998 19.10324306 6.34057617 20.52075195 C6.33972961 22.01900719 6.34020561 23.51726367 6.34190369 25.01551819 C6.34276394 29.07718535 6.32513337 33.13858638 6.30418181 37.20019174 C6.28542004 41.44693923 6.28366497 45.69369292 6.28010559 49.94047546 C6.27078366 57.97979233 6.24616787 66.01898671 6.21605712 74.05824965 C6.18251774 83.21174127 6.16602826 92.36523876 6.15097082 101.51877654 C6.11961844 120.34592045 6.06685505 139.17295037 6 158 C1.125 156.125 1.125 156.125 0 155 C-0.09672695 153.00038545 -0.1218703 150.99729807 -0.12025452 148.99534607 C-0.12162918 147.68977753 -0.12300385 146.38420898 -0.12442017 145.03907776 C-0.12088055 143.57870461 -0.11724573 142.11833169 -0.11352539 140.65795898 C-0.11324353 139.13073732 -0.11340123 137.60351553 -0.1139679 136.07629395 C-0.11425591 131.91738312 -0.10835855 127.75850089 -0.10139394 123.59959674 C-0.09516106 119.25805476 -0.09455665 114.91651219 -0.09336853 110.57496643 C-0.09025502 102.34786418 -0.08204137 94.12077514 -0.07201904 85.89367872 C-0.06085851 76.52986936 -0.05534761 67.16605938 -0.05032361 57.80224502 C-0.03985877 38.53482251 -0.02225895 19.26741231 0 0 Z " fill="#FEFEFE" transform="translate(108,88)"/>
<path d="M0 0 C1.96156442 1.50155152 3.45539623 3.06173628 5.015625 4.9765625 C5.79679687 5.92402344 5.79679687 5.92402344 6.59375 6.890625 C7.17382812 7.61378906 7.17382812 7.61378906 7.765625 8.3515625 C5.26025546 12.1096168 3.93173115 12.15030654 -0.359375 13.2890625 C-2.25623047 13.79759766 -2.25623047 13.79759766 -4.19140625 14.31640625 C-5.53868633 14.66292421 -6.88634523 15.00797256 -8.234375 15.3515625 C-8.87810059 15.5180127 -9.52182617 15.68446289 -10.18505859 15.85595703 C-16.33078562 17.4416011 -22.4929241 18.95264126 -28.67578125 20.38671875 C-29.77877563 20.64255737 -29.77877563 20.64255737 -30.90405273 20.90356445 C-32.36029036 21.24066097 -33.81682865 21.57646162 -35.27368164 21.91088867 C-39.99504924 23.01043049 -44.58761751 24.31485166 -49.15625 25.93359375 C-51.8197993 26.46930761 -53.63891839 26.11764082 -56.234375 25.3515625 C-60.26262241 22.33037694 -63.68499759 18.92492219 -67.234375 15.3515625 C-58.01000905 12.70557091 -48.82361206 10.16203335 -39.41796875 8.234375 C-33.5236379 7.01276773 -27.66258952 5.64004026 -21.796875 4.2890625 C-20.67023438 4.03133057 -19.54359375 3.77359863 -18.3828125 3.50805664 C-17.30386719 3.25918701 -16.22492188 3.01031738 -15.11328125 2.75390625 C-13.57631592 2.39981689 -13.57631592 2.39981689 -12.00830078 2.03857422 C-9.69071832 1.46458398 -7.46253608 0.79499943 -5.19921875 0.04296875 C-2.234375 -0.6484375 -2.234375 -0.6484375 0 0 Z " fill="#FBFCFC" transform="translate(390.234375,329.6484375)"/>
<path d="M0 0 C0.495 0.99 0.495 0.99 1 2 C0.32453125 2.86882812 -0.3509375 3.73765625 -1.046875 4.6328125 C-1.94802172 5.79679368 -2.84905747 6.96086077 -3.75 8.125 C-4.1934375 8.69476563 -4.636875 9.26453125 -5.09375 9.8515625 C-7.24120541 12.63062244 -9.3002581 15.41403692 -11.203125 18.3671875 C-13 21 -13 21 -15 22 C-15.495 22.825 -15.99 23.65 -16.5 24.5 C-18 27 -18 27 -20 28 C-20.309375 28.61875 -20.61875 29.2375 -20.9375 29.875 C-22.02905268 32.05810535 -23.20711515 33.37010468 -25 35 C-28.81552617 33.50104329 -30.53745046 31.2013144 -33 28 C-33.66 27.67 -34.32 27.34 -35 27 C-33.32598022 23.04322598 -30.86850715 20.15535787 -28 17 C-27.34 17 -26.68 17 -26 17 C-25.731875 16.360625 -25.46375 15.72125 -25.1875 15.0625 C-24 13 -24 13 -21 12 C-20.79375 11.236875 -20.5875 10.47375 -20.375 9.6875 C-17.84223458 4.73709486 -12.22965361 3.72363238 -7.18359375 2.0859375 C-4.79653455 1.35929359 -2.40544583 0.6628786 0 0 Z " fill="#FBFBFB" transform="translate(425,230)"/>
<path d="M0 0 C-1.16578404 3.49735213 -2.36745461 4.43673212 -5 7 C-6.82062595 9.11729044 -8.62332621 11.2479973 -10.4140625 13.390625 C-10.93742187 13.92171875 -11.46078125 14.4528125 -12 15 C-12.66 15 -13.32 15 -14 15 C-14.2475 15.763125 -14.495 16.52625 -14.75 17.3125 C-16.13067773 20.28095711 -17.38750987 21.14597475 -20 23 C-20.33 23.99 -20.66 24.98 -21 26 C-22.65385233 27.34919532 -24.321702 28.68133728 -26 30 C-26.556875 30.7425 -27.11375 31.485 -27.6875 32.25 C-28.3371875 33.11625 -28.3371875 33.11625 -29 34 C-29.66 34 -30.32 34 -31 34 C-32.32421875 32.609375 -32.32421875 32.609375 -33.6875 30.75 C-34.14511719 30.14671875 -34.60273438 29.5434375 -35.07421875 28.921875 C-36 27 -36 27 -35.74609375 24.875 C-34.70035398 22.24696287 -33.06222886 20.9536905 -31 19 C-29.84435788 17.69612824 -28.69942701 16.38272243 -27.5625 15.0625 C-24.82496696 11.90876815 -21.9959539 8.91273296 -19 6 C-18.55785156 5.4946875 -18.11570312 4.989375 -17.66015625 4.46875 C-13.18664243 0.51100601 -5.75633748 -0.4544477 0 0 Z " fill="#FBFBFB" transform="translate(430,302)"/>
</svg>
